<svg enable-background="new 0 0 500 500" viewBox="0 0 500 500" xmlns="http://www.w3.org/2000/svg"><path d="m153.7 168.5c16.7-.3 32.1 1.3 47.2 4.9 5.1 1 8.2.8 11.8-4.1 28-38.5 60.6-72.9 95.7-104.9 14.9-13.6 28.2-28.5 44.6-40.5 12.8-9.5 26.9-16.4 42.3-20.5 18.5-4.9 32.3 4.9 34.4 23.9 1.3 12.6-2.1 24.6-5.9 36.4-19.2 60-48 116-77.5 171.4-4.9 9.2-5.1 15.1 1.8 23.6 10.5 12.8 19.8 26.9 25.1 43.1 1.3 4.1 4.6 10-1 12.8-6.2 3.1-7.2-4.1-9.8-7.7-7.7-10.8-15.9-21.3-24.9-30.8-6.2-6.4-9.5-7.4-14.6 1.8-37 66.5-74.2 132.9-111.4 199.1-2.8 4.9-5.4 9.8-8.7 14.1-5.4 6.7-12.8 8.7-20.8 5.4-8-3.6-11-10.5-10-19 1-8.2 5.1-15.4 8.5-22.6 41.3-86.5 87.8-170.1 135.7-253 16.4-28.5 32.8-57 44.1-88.3 3.1-8.5 5.1-17.2 3.3-26.4-1.8-9-5.6-12.6-14.9-7.4-12.6 6.9-23.6 15.4-34.1 24.9-23.9 21-45.2 44.4-64.4 69.5-6.4 8.2-7.4 12.8 4.1 16.7 9.8 3.1 18.5 9 24.4 18 3.6 5.4 5.4 11 .8 16.4-4.4 5.1-9.8 4.4-15.4 2.3-51.1-19.5-103.7-19.5-156.5-11-4.6.8-9.2 1-14.1 1.3-8.7 0-16.4-2.6-19-11.8-2.6-9 1.8-15.9 9-20.8 18.2-12.3 39.3-13.6 60-15.4 3.8-1.4 7.6-1.4 10.2-1.4z"/></svg>